<svg width="148" height="21" viewBox="0 0 148 21" fill="none" xmlns="http://www.w3.org/2000/svg">
<path d="M7.65 19.125C6.36667 19.125 5.14167 18.9083 3.975 18.475C2.825 18.025 1.925 17.45 1.275 16.75L1.85 15.8C2.46667 16.45 3.29167 16.9833 4.325 17.4C5.375 17.8 6.475 18 7.625 18C9.29167 18 10.55 17.6833 11.4 17.05C12.25 16.4167 12.675 15.5917 12.675 14.575C12.675 13.7917 12.45 13.1667 12 12.7C11.55 12.2333 10.9917 11.875 10.325 11.625C9.65833 11.375 8.75833 11.1167 7.625 10.85C6.34167 10.5333 5.30833 10.225 4.525 9.925C3.75833 9.625 3.1 9.16667 2.55 8.55C2.01667 7.91667 1.75 7.075 1.75 6.025C1.75 5.175 1.975 4.4 2.425 3.7C2.875 2.98333 3.55833 2.41667 4.475 2C5.40833 1.58333 6.56667 1.375 7.95 1.375C8.91667 1.375 9.86667 1.51667 10.8 1.8C11.7333 2.08333 12.5417 2.46667 13.225 2.95L12.75 3.975C12.05 3.49167 11.275 3.125 10.425 2.875C9.59167 2.625 8.76667 2.5 7.95 2.5C6.33333 2.5 5.10833 2.825 4.275 3.475C3.44167 4.125 3.025 4.96667 3.025 6C3.025 6.78333 3.25 7.40833 3.7 7.875C4.15 8.34167 4.70833 8.7 5.375 8.95C6.04167 9.2 6.95 9.46667 8.1 9.75C9.38333 10.0667 10.4083 10.375 11.175 10.675C11.9417 10.975 12.5917 11.4333 13.125 12.05C13.675 12.65 13.95 13.4667 13.95 14.5C13.95 15.35 13.7167 16.125 13.25 16.825C12.8 17.525 12.1 18.0833 11.15 18.5C10.2 18.9167 9.03333 19.125 7.65 19.125ZM55.7094 14.075H45.5594L43.3344 19H41.9594L50.0094 1.5H51.2844L59.3344 19H57.9594L55.7094 14.075ZM55.2344 13L50.6344 2.9L46.0594 13H55.2344ZM102.183 1.5L94.383 19H93.108L85.308 1.5H86.708L93.783 17.35L100.858 1.5H102.183ZM141.893 14.075H131.743L129.518 19H128.143L136.193 1.5H137.468L145.518 19H144.143L141.893 14.075ZM141.418 13L136.818 2.9L132.243 13H141.418Z" fill="#4751F1"/>
<path d="M3.975 18.475L3.6106 19.4062L3.61868 19.4094L3.62681 19.4124L3.975 18.475ZM1.275 16.75L0.4195 16.2322L0.028855 16.8776L0.542207 17.4305L1.275 16.75ZM1.85 15.8L2.57546 15.1117L1.67326 14.1608L0.9945 15.2822L1.85 15.8ZM4.325 17.4L3.95103 18.3274L3.95998 18.3311L3.969 18.3345L4.325 17.4ZM11.4 17.05L11.9975 17.8519L11.4 17.05ZM12 12.7L11.2802 13.3941L12 12.7ZM10.325 11.625L10.6761 10.6887H10.6761L10.325 11.625ZM7.625 10.85L7.38542 11.8209L7.39596 11.8234L7.625 10.85ZM4.525 9.925L4.16059 10.8563L4.16735 10.8589L4.525 9.925ZM2.55 8.55L1.78509 9.19414L1.79424 9.20501L1.8037 9.21561L2.55 8.55ZM2.425 3.7L3.26623 4.24079L3.27189 4.23177L2.425 3.7ZM4.475 2L4.06734 1.08684L4.0612 1.08963L4.475 2ZM10.8 1.8L10.5095 2.75688L10.8 1.8ZM13.225 2.95L14.1323 3.37046L14.4826 2.61463L13.8025 2.13358L13.225 2.95ZM12.75 3.975L12.1818 4.7979L13.1583 5.47217L13.6573 4.39546L12.75 3.975ZM10.425 2.875L10.1376 3.83284L10.1428 3.83436L10.425 2.875ZM4.275 3.475L3.65997 2.6865H3.65997L4.275 3.475ZM3.7 7.875L2.98016 8.56914H2.98016L3.7 7.875ZM5.375 8.95L5.02388 9.88633H5.02388L5.375 8.95ZM8.1 9.75L8.33957 8.77912L8.33922 8.77904L8.1 9.75ZM11.175 10.675L10.8106 11.6062H10.8106L11.175 10.675ZM13.125 12.05L12.3686 12.7042L12.3781 12.7151L12.3878 12.7257L13.125 12.05ZM13.25 16.825L12.418 16.2703L12.4133 16.2772L12.4088 16.2842L13.25 16.825ZM11.15 18.5L10.7483 17.5842L11.15 18.5ZM7.65 18.125C6.48176 18.125 5.37496 17.9282 4.32319 17.5376L3.62681 19.4124C4.90838 19.8884 6.25157 20.125 7.65 20.125V18.125ZM4.3394 17.5438C3.28997 17.1331 2.53001 16.6319 2.00779 16.0695L0.542207 17.4305C1.31999 18.2681 2.36003 18.9169 3.6106 19.4062L4.3394 17.5438ZM2.1305 17.2678L2.7055 16.3178L0.9945 15.2822L0.4195 16.2322L2.1305 17.2678ZM1.12454 16.4883C1.86084 17.2644 2.81624 17.8699 3.95103 18.3274L4.69897 16.4726C3.76709 16.0968 3.0725 15.6356 2.57546 15.1117L1.12454 16.4883ZM3.969 18.3345C5.13539 18.7788 6.35625 19 7.625 19V17C6.59375 17 5.61461 16.8212 4.681 16.4655L3.969 18.3345ZM7.625 19C9.39213 19 10.9012 18.6687 11.9975 17.8519L10.8025 16.2481C10.1988 16.6979 9.19121 17 7.625 17V19ZM11.9975 17.8519C13.0881 17.0393 13.675 15.923 13.675 14.575H11.675C11.675 15.2603 11.4119 15.7941 10.8025 16.2481L11.9975 17.8519ZM13.675 14.575C13.675 13.59 13.3858 12.6964 12.7198 12.0059L11.2802 13.3941C11.5142 13.6369 11.675 13.9933 11.675 14.575H13.675ZM12.7198 12.0059C12.1567 11.4218 11.4683 10.9857 10.6761 10.6887L9.97388 12.5613C10.515 12.7643 10.9433 13.0448 11.2802 13.3941L12.7198 12.0059ZM10.6761 10.6887C9.95264 10.4174 9.00636 10.1477 7.85404 9.87658L7.39596 11.8234C8.51031 12.0856 9.36403 12.3326 9.97388 12.5613L10.6761 10.6887ZM7.86457 9.87912C6.60134 9.56741 5.61207 9.27049 4.88265 8.99114L4.16735 10.8589C5.0046 11.1795 6.08199 11.4993 7.38543 11.8209L7.86457 9.87912ZM4.8894 8.99376C4.2697 8.75127 3.74205 8.38417 3.2963 7.88438L1.8037 9.21561C2.45795 9.94916 3.24696 10.4987 4.1606 10.8562L4.8894 8.99376ZM3.31491 7.90586C2.97049 7.49686 2.75 6.90409 2.75 6.025H0.75C0.75 7.24591 1.06285 8.33647 1.78509 9.19414L3.31491 7.90586ZM2.75 6.025C2.75 5.3624 2.9222 4.77584 3.26618 4.24076L1.58382 3.15924C1.0278 4.02416 0.75 4.9876 0.75 6.025H2.75ZM3.27189 4.23177C3.59929 3.71035 4.11604 3.26162 4.8888 2.91037L4.0612 1.08963C3.00062 1.57171 2.15071 2.25631 1.57811 3.16823L3.27189 4.23177ZM4.88265 2.91314C5.65089 2.57018 6.66027 2.375 7.95 2.375V0.374999C6.47306 0.374999 5.16578 0.596491 4.06735 1.08686L4.88265 2.91314ZM7.95 2.375C8.81735 2.375 9.6695 2.50187 10.5095 2.75688L11.0905 0.843119C10.0638 0.531457 9.01599 0.374999 7.95 0.374999V2.375ZM10.5095 2.75688C11.3569 3.01411 12.0648 3.35425 12.6475 3.76641L13.8025 2.13358C13.0185 1.57908 12.1098 1.15256 11.0905 0.843119L10.5095 2.75688ZM12.3177 2.52954L11.8427 3.55454L13.6573 4.39546L14.1323 3.37046L12.3177 2.52954ZM13.3182 3.1521C12.5271 2.60588 11.6549 2.19437 10.7072 1.91563L10.1428 3.83436C10.8951 4.05562 11.5729 4.37745 12.1818 4.7979L13.3182 3.1521ZM10.7123 1.91717C9.79188 1.64103 8.87015 1.5 7.95 1.5V3.5C8.66318 3.5 9.39145 3.60896 10.1377 3.83282L10.7123 1.91717ZM7.95 1.5C6.22234 1.5 4.74052 1.84367 3.65997 2.6865L4.89003 4.2635C5.47615 3.80633 6.44433 3.5 7.95 3.5V1.5ZM3.65997 2.6865C2.59016 3.52095 2.025 4.65046 2.025 6H4.025C4.025 5.28288 4.29318 4.72905 4.89003 4.2635L3.65997 2.6865ZM2.025 6C2.025 6.98497 2.31425 7.87856 2.98016 8.56914L4.41984 7.18086C4.18575 6.9381 4.025 6.58169 4.025 6H2.025ZM2.98016 8.56914C3.54332 9.15315 4.23168 9.58925 5.02388 9.88633L5.72612 8.01367C5.18499 7.81074 4.75668 7.53018 4.41984 7.18086L2.98016 8.56914ZM5.02388 9.88633C5.74313 10.156 6.69414 10.4335 7.86078 10.721L8.33922 8.77904C7.20586 8.4998 6.3402 8.24395 5.72612 8.01367L5.02388 9.88633ZM7.86043 10.7209C9.12342 11.0325 10.1014 11.3287 10.8106 11.6062L11.5394 9.74376C10.7153 9.42127 9.64325 9.10081 8.33957 8.77912L7.86043 10.7209ZM10.8106 11.6062C11.4276 11.8477 11.9426 12.2115 12.3686 12.7042L13.8814 11.3958C13.2407 10.6551 12.4557 10.1023 11.5394 9.74376L10.8106 11.6062ZM12.3878 12.7257C12.7268 13.0955 12.95 13.6469 12.95 14.5H14.95C14.95 13.2864 14.6232 12.2045 13.8622 11.3743L12.3878 12.7257ZM12.95 14.5C12.95 15.1548 12.7739 15.7364 12.418 16.2703L14.0821 17.3797C14.6594 16.5136 14.95 15.5452 14.95 14.5H12.95ZM12.4088 16.2842C12.0888 16.7821 11.5627 17.2271 10.7483 17.5842L11.5517 19.4158C12.6373 18.9396 13.5112 18.2679 14.0912 17.3658L12.4088 16.2842ZM10.7483 17.5842C9.95966 17.9301 8.93878 18.125 7.65 18.125V20.125C9.12788 20.125 10.4403 19.9032 11.5517 19.4158L10.7483 17.5842ZM55.7094 14.075L56.6189 13.6595L56.3519 13.075H55.7094V14.075ZM45.5594 14.075V13.075H44.9138L44.6481 13.6633L45.5594 14.075ZM43.3344 19V20H43.9799L44.2457 19.4117L43.3344 19ZM41.9594 19L41.0509 18.5821L40.3986 20H41.9594V19ZM50.0094 1.5V0.499999H49.3686L49.1009 1.08209L50.0094 1.5ZM51.2844 1.5L52.1929 1.08209L51.9251 0.499999H51.2844V1.5ZM59.3344 19V20H60.8951L60.2429 18.5821L59.3344 19ZM57.9594 19L57.0498 19.4155L57.3168 20H57.9594V19ZM55.2344 13V14H56.7887L56.1444 12.5855L55.2344 13ZM50.6344 2.9L51.5444 2.48552L50.6319 0.481899L49.7235 2.48738L50.6344 2.9ZM46.0594 13L45.1485 12.5874L44.5086 14H46.0594V13ZM55.7094 13.075H45.5594V15.075H55.7094V13.075ZM44.6481 13.6633L42.4231 18.5883L44.2457 19.4117L46.4707 14.4867L44.6481 13.6633ZM43.3344 18H41.9594V20H43.3344V18ZM42.8679 19.4179L50.9179 1.9179L49.1009 1.08209L41.0509 18.5821L42.8679 19.4179ZM50.0094 2.5H51.2844V0.499999H50.0094V2.5ZM50.3759 1.9179L58.4259 19.4179L60.2429 18.5821L52.1929 1.08209L50.3759 1.9179ZM59.3344 18H57.9594V20H59.3344V18ZM58.8689 18.5845L56.6189 13.6595L54.7998 14.4905L57.0498 19.4155L58.8689 18.5845ZM56.1444 12.5855L51.5444 2.48552L49.7243 3.31448L54.3243 13.4145L56.1444 12.5855ZM49.7235 2.48738L45.1485 12.5874L46.9703 13.4126L51.5453 3.31261L49.7235 2.48738ZM46.0594 14H55.2344V12H46.0594V14ZM102.183 1.5L103.096 1.90711L103.724 0.499999H102.183V1.5ZM94.383 19V20H95.0321L95.2964 19.4071L94.383 19ZM93.108 19L92.1946 19.4071L92.4589 20H93.108V19ZM85.308 1.5V0.499999H83.7675L84.3946 1.90711L85.308 1.5ZM86.708 1.5L87.6212 1.09239L87.3567 0.499999H86.708V1.5ZM93.783 17.35L92.8699 17.7576L93.783 19.8033L94.6962 17.7576L93.783 17.35ZM100.858 1.5V0.499999H100.209L99.9448 1.09239L100.858 1.5ZM101.27 1.09289L93.4696 18.5929L95.2964 19.4071L103.096 1.90711L101.27 1.09289ZM94.383 18H93.108V20H94.383V18ZM94.0214 18.5929L86.2214 1.09289L84.3946 1.90711L92.1946 19.4071L94.0214 18.5929ZM85.308 2.5H86.708V0.499999H85.308V2.5ZM85.7948 1.90761L92.8699 17.7576L94.6962 16.9424L87.6212 1.09239L85.7948 1.90761ZM94.6962 17.7576L101.771 1.90761L99.9448 1.09239L92.8699 16.9424L94.6962 17.7576ZM100.858 2.5H102.183V0.499999H100.858V2.5ZM141.893 14.075L142.802 13.6595L142.535 13.075H141.893V14.075ZM131.743 14.075V13.075H131.097L130.831 13.6633L131.743 14.075ZM129.518 19V20H130.163L130.429 19.4117L129.518 19ZM128.143 19L127.234 18.5821L126.582 20H128.143V19ZM136.193 1.5V0.499999H135.552L135.284 1.08209L136.193 1.5ZM137.468 1.5L138.376 1.08209L138.109 0.499999H137.468V1.5ZM145.518 19V20H147.079L146.426 18.5821L145.518 19ZM144.143 19L143.233 19.4155L143.5 20H144.143V19ZM141.418 13V14H142.972L142.328 12.5855L141.418 13ZM136.818 2.9L137.728 2.48552L136.815 0.481899L135.907 2.48738L136.818 2.9ZM132.243 13L131.332 12.5874L130.692 14H132.243V13ZM141.893 13.075H131.743V15.075H141.893V13.075ZM130.831 13.6633L128.606 18.5883L130.429 19.4117L132.654 14.4867L130.831 13.6633ZM129.518 18H128.143V20H129.518V18ZM129.051 19.4179L137.101 1.9179L135.284 1.08209L127.234 18.5821L129.051 19.4179ZM136.193 2.5H137.468V0.499999H136.193V2.5ZM136.559 1.9179L144.609 19.4179L146.426 18.5821L138.376 1.08209L136.559 1.9179ZM145.518 18H144.143V20H145.518V18ZM145.052 18.5845L142.802 13.6595L140.983 14.4905L143.233 19.4155L145.052 18.5845ZM142.328 12.5855L137.728 2.48552L135.908 3.31448L140.508 13.4145L142.328 12.5855ZM135.907 2.48738L131.332 12.5874L133.154 13.4126L137.729 3.31261L135.907 2.48738ZM132.243 14H141.418V12H132.243V14Z" fill="black"/>
</svg>
