<svg width="145" height="19" viewBox="0 0 145 19" fill="none" xmlns="http://www.w3.org/2000/svg">
<path d="M6.65 18.125C5.36667 18.125 4.14167 17.9083 2.975 17.475C1.825 17.025 0.925 16.45 0.275 15.75L0.85 14.8C1.46667 15.45 2.29167 15.9833 3.325 16.4C4.375 16.8 5.475 17 6.625 17C8.29167 17 9.55 16.6833 10.4 16.05C11.25 15.4167 11.675 14.5917 11.675 13.575C11.675 12.7917 11.45 12.1667 11 11.7C10.55 11.2333 9.99167 10.875 9.325 10.625C8.65833 10.375 7.75833 10.1167 6.625 9.85C5.34167 9.53333 4.30833 9.225 3.525 8.925C2.75833 8.625 2.1 8.16667 1.55 7.55C1.01667 6.91667 0.75 6.075 0.75 5.025C0.75 4.175 0.975 3.4 1.425 2.7C1.875 1.98333 2.55833 1.41667 3.475 1C4.40833 0.583333 5.56667 0.374999 6.95 0.374999C7.91667 0.374999 8.86667 0.516666 9.8 0.799999C10.7333 1.08333 11.5417 1.46667 12.225 1.95L11.75 2.975C11.05 2.49167 10.275 2.125 9.425 1.875C8.59167 1.625 7.76667 1.5 6.95 1.5C5.33333 1.5 4.10833 1.825 3.275 2.475C2.44167 3.125 2.025 3.96667 2.025 5C2.025 5.78333 2.25 6.40833 2.7 6.875C3.15 7.34167 3.70833 7.7 4.375 7.95C5.04167 8.2 5.95 8.46667 7.1 8.75C8.38333 9.06667 9.40833 9.375 10.175 9.675C10.9417 9.975 11.5917 10.4333 12.125 11.05C12.675 11.65 12.95 12.4667 12.95 13.5C12.95 14.35 12.7167 15.125 12.25 15.825C11.8 16.525 11.1 17.0833 10.15 17.5C9.2 17.9167 8.03333 18.125 6.65 18.125ZM54.7094 13.075H44.5594L42.3344 18H40.9594L49.0094 0.499999H50.2844L58.3344 18H56.9594L54.7094 13.075ZM54.2344 12L49.6344 1.9L45.0594 12H54.2344ZM101.183 0.499999L93.383 18H92.108L84.308 0.499999H85.708L92.783 16.35L99.858 0.499999H101.183ZM140.893 13.075H130.743L128.518 18H127.143L135.193 0.499999H136.468L144.518 18H143.143L140.893 13.075ZM140.418 12L135.818 1.9L131.243 12H140.418Z" fill="white"/>
<path d="M2.975 17.475L2.6106 18.4062L2.61868 18.4094L2.62681 18.4124L2.975 17.475ZM0.275 15.75L-0.5805 15.2322L-0.971145 15.8776L-0.457793 16.4305L0.275 15.75ZM0.85 14.8L1.57546 14.1117L0.67326 13.1608L-0.00550008 14.2822L0.85 14.8ZM3.325 16.4L2.95103 17.3274L2.95998 17.3311L2.969 17.3345L3.325 16.4ZM10.4 16.05L10.9975 16.8519L10.4 16.05ZM11 11.7L10.2802 12.3941L11 11.7ZM9.325 10.625L9.67612 9.68867H9.67612L9.325 10.625ZM6.625 9.85L6.38542 10.8209L6.39596 10.8234L6.625 9.85ZM3.525 8.925L3.16059 9.85627L3.16735 9.85886L3.525 8.925ZM1.55 7.55L0.785089 8.19414L0.794244 8.20501L0.803705 8.21561L1.55 7.55ZM1.425 2.7L2.26623 3.24079L2.27189 3.23177L1.425 2.7ZM3.475 1L3.06734 0.0868416L3.0612 0.0896339L3.475 1ZM9.8 0.799999L9.50952 1.75688L9.8 0.799999ZM12.225 1.95L13.1323 2.37046L13.4826 1.61463L12.8025 1.13358L12.225 1.95ZM11.75 2.975L11.1818 3.7979L12.1583 4.47217L12.6573 3.39546L11.75 2.975ZM9.425 1.875L9.13765 2.83284L9.14283 2.83436L9.425 1.875ZM3.275 2.475L2.65997 1.6865H2.65997L3.275 2.475ZM2.7 6.875L1.98016 7.56914H1.98016L2.7 6.875ZM4.375 7.95L4.02388 8.88633H4.02388L4.375 7.95ZM7.1 8.75L7.33957 7.77912L7.33922 7.77904L7.1 8.75ZM10.175 9.675L9.8106 10.6062H9.8106L10.175 9.675ZM12.125 11.05L11.3686 11.7042L11.3781 11.7151L11.3878 11.7257L12.125 11.05ZM12.25 15.825L11.418 15.2703L11.4133 15.2772L11.4088 15.2842L12.25 15.825ZM10.15 17.5L9.74834 16.5842L10.15 17.5ZM6.65 17.125C5.48176 17.125 4.37496 16.9282 3.32319 16.5376L2.62681 18.4124C3.90838 18.8884 5.25157 19.125 6.65 19.125V17.125ZM3.3394 16.5438C2.28997 16.1331 1.53001 15.6319 1.00779 15.0695L-0.457793 16.4305C0.319995 17.2681 1.36003 17.9169 2.6106 18.4062L3.3394 16.5438ZM1.1305 16.2678L1.7055 15.3178L-0.00550008 14.2822L-0.5805 15.2322L1.1305 16.2678ZM0.124536 15.4883C0.860838 16.2644 1.81624 16.8699 2.95103 17.3274L3.69897 15.4726C2.76709 15.0968 2.0725 14.6356 1.57546 14.1117L0.124536 15.4883ZM2.969 17.3345C4.13539 17.7788 5.35625 18 6.625 18V16C5.59375 16 4.61461 15.8212 3.681 15.4655L2.969 17.3345ZM6.625 18C8.39213 18 9.90117 17.6687 10.9975 16.8519L9.80252 15.2481C9.19883 15.6979 8.19121 16 6.625 16V18ZM10.9975 16.8519C12.0881 16.0393 12.675 14.923 12.675 13.575H10.675C10.675 14.2603 10.4119 14.7941 9.80252 15.2481L10.9975 16.8519ZM12.675 13.575C12.675 12.59 12.3858 11.6964 11.7198 11.0059L10.2802 12.3941C10.5142 12.6369 10.675 12.9933 10.675 13.575H12.675ZM11.7198 11.0059C11.1567 10.4218 10.4683 9.98574 9.67612 9.68867L8.97388 11.5613C9.51501 11.7643 9.94332 12.0448 10.2802 12.3941L11.7198 11.0059ZM9.67612 9.68867C8.95264 9.41736 8.00636 9.14772 6.85404 8.87658L6.39596 10.8234C7.51031 11.0856 8.36403 11.3326 8.97388 11.5613L9.67612 9.68867ZM6.86457 8.87912C5.60134 8.56741 4.61207 8.27049 3.88265 7.99114L3.16735 9.85886C4.0046 10.1795 5.08199 10.4993 6.38543 10.8209L6.86457 8.87912ZM3.8894 7.99376C3.2697 7.75127 2.74205 7.38417 2.2963 6.88438L0.803705 8.21561C1.45795 8.94916 2.24696 9.49873 3.1606 9.85624L3.8894 7.99376ZM2.31491 6.90586C1.97049 6.49686 1.75 5.90409 1.75 5.025H-0.25C-0.25 6.24591 0.0628452 7.33647 0.785089 8.19414L2.31491 6.90586ZM1.75 5.025C1.75 4.3624 1.9222 3.77584 2.26618 3.24076L0.583822 2.15924C0.0278029 3.02416 -0.25 3.9876 -0.25 5.025H1.75ZM2.27189 3.23177C2.59929 2.71035 3.11604 2.26162 3.8888 1.91037L3.0612 0.0896339C2.00062 0.571711 1.15071 1.25631 0.57811 2.16823L2.27189 3.23177ZM3.88265 1.91314C4.65089 1.57018 5.66027 1.375 6.95 1.375V-0.625001C5.47306 -0.625001 4.16578 -0.403509 3.06735 0.0868626L3.88265 1.91314ZM6.95 1.375C7.81735 1.375 8.6695 1.50187 9.50952 1.75688L10.0905 -0.156881C9.06383 -0.468543 8.01599 -0.625001 6.95 -0.625001V1.375ZM9.50952 1.75688C10.3569 2.01411 11.0648 2.35425 11.6475 2.76641L12.8025 1.13358C12.0185 0.579081 11.1098 0.152557 10.0905 -0.156881L9.50952 1.75688ZM11.3177 1.52954L10.8427 2.55454L12.6573 3.39546L13.1323 2.37046L11.3177 1.52954ZM12.3182 2.1521C11.5271 1.60588 10.6549 1.19437 9.70717 0.915634L9.14283 2.83436C9.89512 3.05562 10.5729 3.37745 11.1818 3.7979L12.3182 2.1521ZM9.71235 0.917173C8.79188 0.641033 7.87015 0.5 6.95 0.5V2.5C7.66318 2.5 8.39145 2.60896 9.13765 2.83282L9.71235 0.917173ZM6.95 0.5C5.22234 0.5 3.74052 0.84367 2.65997 1.6865L3.89003 3.2635C4.47615 2.80633 5.44433 2.5 6.95 2.5V0.5ZM2.65997 1.6865C1.59016 2.52095 1.025 3.65046 1.025 5H3.025C3.025 4.28288 3.29318 3.72905 3.89003 3.2635L2.65997 1.6865ZM1.025 5C1.025 5.98497 1.31425 6.87856 1.98016 7.56914L3.41984 6.18086C3.18575 5.9381 3.025 5.58169 3.025 5H1.025ZM1.98016 7.56914C2.54332 8.15315 3.23168 8.58925 4.02388 8.88633L4.72612 7.01367C4.18499 6.81074 3.75668 6.53018 3.41984 6.18086L1.98016 7.56914ZM4.02388 8.88633C4.74313 9.15605 5.69414 9.43353 6.86078 9.72096L7.33922 7.77904C6.20586 7.4998 5.3402 7.24395 4.72612 7.01367L4.02388 8.88633ZM6.86043 9.72088C8.12342 10.0325 9.10141 10.3287 9.8106 10.6062L10.5394 8.74376C9.71526 8.42127 8.64325 8.10081 7.33957 7.77912L6.86043 9.72088ZM9.8106 10.6062C10.4276 10.8477 10.9426 11.2115 11.3686 11.7042L12.8814 10.3958C12.2407 9.65512 11.4557 9.10232 10.5394 8.74376L9.8106 10.6062ZM11.3878 11.7257C11.7268 12.0955 11.95 12.6469 11.95 13.5H13.95C13.95 12.2864 13.6232 11.2045 12.8622 10.3743L11.3878 11.7257ZM11.95 13.5C11.95 14.1548 11.7739 14.7364 11.418 15.2703L13.0821 16.3797C13.6594 15.5136 13.95 14.5452 13.95 13.5H11.95ZM11.4088 15.2842C11.0888 15.7821 10.5627 16.2271 9.74834 16.5842L10.5517 18.4158C11.6373 17.9396 12.5112 17.2679 13.0912 16.3658L11.4088 15.2842ZM9.74834 16.5842C8.95966 16.9301 7.93878 17.125 6.65 17.125V19.125C8.12788 19.125 9.44034 18.9032 10.5517 18.4158L9.74834 16.5842ZM54.7094 13.075L55.6189 12.6595L55.3519 12.075H54.7094V13.075ZM44.5594 13.075V12.075H43.9138L43.6481 12.6633L44.5594 13.075ZM42.3344 18V19H42.9799L43.2457 18.4117L42.3344 18ZM40.9594 18L40.0509 17.5821L39.3986 19H40.9594V18ZM49.0094 0.499998V-0.500001H48.3686L48.1009 0.0820923L49.0094 0.499998ZM50.2844 0.499998L51.1929 0.0820923L50.9251 -0.500001H50.2844V0.499998ZM58.3344 18V19H59.8951L59.2429 17.5821L58.3344 18ZM56.9594 18L56.0498 18.4155L56.3168 19H56.9594V18ZM54.2344 12V13H55.7887L55.1444 11.5855L54.2344 12ZM49.6344 1.9L50.5444 1.48552L49.6319 -0.518101L48.7235 1.48738L49.6344 1.9ZM45.0594 12L44.1485 11.5874L43.5086 13H45.0594V12ZM54.7094 12.075H44.5594V14.075H54.7094V12.075ZM43.6481 12.6633L41.4231 17.5883L43.2457 18.4117L45.4707 13.4867L43.6481 12.6633ZM42.3344 17H40.9594V19H42.3344V17ZM41.8679 18.4179L49.9179 0.917904L48.1009 0.0820923L40.0509 17.5821L41.8679 18.4179ZM49.0094 1.5H50.2844V-0.500001H49.0094V1.5ZM49.3759 0.917904L57.4259 18.4179L59.2429 17.5821L51.1929 0.0820923L49.3759 0.917904ZM58.3344 17H56.9594V19H58.3344V17ZM57.8689 17.5845L55.6189 12.6595L53.7998 13.4905L56.0498 18.4155L57.8689 17.5845ZM55.1444 11.5855L50.5444 1.48552L48.7243 2.31448L53.3243 12.4145L55.1444 11.5855ZM48.7235 1.48738L44.1485 11.5874L45.9703 12.4126L50.5453 2.31261L48.7235 1.48738ZM45.0594 13H54.2344V11H45.0594V13ZM101.183 0.499998L102.096 0.907106L102.724 -0.500001H101.183V0.499998ZM93.383 18V19H94.0321L94.2964 18.4071L93.383 18ZM92.108 18L91.1946 18.4071L91.4589 19H92.108V18ZM84.308 0.499998V-0.500001H82.7675L83.3946 0.907106L84.308 0.499998ZM85.708 0.499998L86.6212 0.0923901L86.3567 -0.500001H85.708V0.499998ZM92.783 16.35L91.8699 16.7576L92.783 18.8033L93.6962 16.7576L92.783 16.35ZM99.858 0.499998V-0.500001H99.2093L98.9448 0.0923901L99.858 0.499998ZM100.27 0.0928917L92.4696 17.5929L94.2964 18.4071L102.096 0.907106L100.27 0.0928917ZM93.383 17H92.108V19H93.383V17ZM93.0214 17.5929L85.2214 0.0928917L83.3946 0.907106L91.1946 18.4071L93.0214 17.5929ZM84.308 1.5H85.708V-0.500001H84.308V1.5ZM84.7948 0.907606L91.8699 16.7576L93.6962 15.9424L86.6212 0.0923901L84.7948 0.907606ZM93.6962 16.7576L100.771 0.907606L98.9448 0.0923901L91.8699 15.9424L93.6962 16.7576ZM99.858 1.5H101.183V-0.500001H99.858V1.5ZM140.893 13.075L141.802 12.6595L141.535 12.075H140.893V13.075ZM130.743 13.075V12.075H130.097L129.831 12.6633L130.743 13.075ZM128.518 18V19H129.163L129.429 18.4117L128.518 18ZM127.143 18L126.234 17.5821L125.582 19H127.143V18ZM135.193 0.499998V-0.500001H134.552L134.284 0.0820923L135.193 0.499998ZM136.468 0.499998L137.376 0.0820923L137.109 -0.500001H136.468V0.499998ZM144.518 18V19H146.079L145.426 17.5821L144.518 18ZM143.143 18L142.233 18.4155L142.5 19H143.143V18ZM140.418 12V13H141.972L141.328 11.5855L140.418 12ZM135.818 1.9L136.728 1.48552L135.815 -0.518101L134.907 1.48738L135.818 1.9ZM131.243 12L130.332 11.5874L129.692 13H131.243V12ZM140.893 12.075H130.743V14.075H140.893V12.075ZM129.831 12.6633L127.606 17.5883L129.429 18.4117L131.654 13.4867L129.831 12.6633ZM128.518 17H127.143V19H128.518V17ZM128.051 18.4179L136.101 0.917904L134.284 0.0820923L126.234 17.5821L128.051 18.4179ZM135.193 1.5H136.468V-0.500001H135.193V1.5ZM135.559 0.917904L143.609 18.4179L145.426 17.5821L137.376 0.0820923L135.559 0.917904ZM144.518 17H143.143V19H144.518V17ZM144.052 17.5845L141.802 12.6595L139.983 13.4905L142.233 18.4155L144.052 17.5845ZM141.328 11.5855L136.728 1.48552L134.908 2.31448L139.508 12.4145L141.328 11.5855ZM134.907 1.48738L130.332 11.5874L132.154 12.4126L136.729 2.31261L134.907 1.48738ZM131.243 13H140.418V11H131.243V13Z" fill="black"/>
</svg>
